<svg width="70" height="70" viewBox="0 0 70 70" fill="none" xmlns="http://www.w3.org/2000/svg">
<g filter="url(#filter0_d_1_171)">
<circle cx="34.8001" cy="21.7999" r="16.7999" fill="#1A202C"/>
</g>
<path d="M35.3867 5C26.0373 5 18.4583 12.5215 18.4583 21.8C18.4583 31.0785 26.0373 38.6 35.3867 38.6C44.736 38.6 52.315 31.0785 52.315 21.8C52.315 12.5215 44.736 5 35.3867 5ZM39.3965 16.6095H36.852C36.5505 16.6095 36.2154 17.0033 36.2154 17.5265V19.35H39.3983L38.9169 21.9505H36.2154V29.7573H33.2124V21.9505H30.488V19.35H33.2124V17.8205C33.2124 15.626 34.7465 13.8428 36.852 13.8428H39.3965V16.6095Z" fill="white"/>
<defs>
<filter id="filter0_d_1_171" x="0.00012207" y="0" width="69.5999" height="69.5999" filterUnits="userSpaceOnUse" color-interpolation-filters="sRGB">
<feFlood flood-opacity="0" result="BackgroundImageFix"/>
<feColorMatrix in="SourceAlpha" type="matrix" values="0 0 0 0 0 0 0 0 0 0 0 0 0 0 0 0 0 0 127 0" result="hardAlpha"/>
<feOffset dy="13"/>
<feGaussianBlur stdDeviation="9"/>
<feColorMatrix type="matrix" values="0 0 0 0 0.0658854 0 0 0 0 0.0730469 0 0 0 0 0.1375 0 0 0 0.08 0"/>
<feBlend mode="normal" in2="BackgroundImageFix" result="effect1_dropShadow_1_171"/>
<feBlend mode="normal" in="SourceGraphic" in2="effect1_dropShadow_1_171" result="shape"/>
</filter>
</defs>
</svg>
