<svg width="70" height="70" viewBox="0 0 70 70" fill="none" xmlns="http://www.w3.org/2000/svg">
<g filter="url(#filter0_d_1_177)">
<circle cx="34.7999" cy="21.7999" r="16.7999" fill="#1A202C"/>
</g>
<path d="M40.2184 21.8C40.2184 23.1924 39.6611 24.5277 38.669 25.5123C37.6769 26.4969 36.3314 27.05 34.9283 27.05C33.5253 27.05 32.1798 26.4969 31.1877 25.5123C30.1956 24.5277 29.6382 23.1924 29.6382 21.8C29.6382 21.5008 29.67 21.2085 29.7246 20.925H27.8749V27.9198C27.8749 28.4063 28.2716 28.8 28.7618 28.8H41.0966C41.3315 28.7995 41.5567 28.7066 41.7226 28.5416C41.8886 28.3765 41.9818 28.1529 41.9818 27.9198V20.925H40.132C40.1867 21.2085 40.2184 21.5008 40.2184 21.8ZM34.9283 25.3C35.3916 25.2999 35.8503 25.2092 36.2782 25.0332C36.7062 24.8571 37.095 24.5992 37.4225 24.274C37.75 23.9488 38.0097 23.5628 38.1869 23.138C38.3641 22.7133 38.4552 22.258 38.4551 21.7983C38.455 21.3385 38.3636 20.8833 38.1862 20.4586C38.0088 20.0339 37.7489 19.648 37.4212 19.323C37.0936 18.998 36.7046 18.7402 36.2766 18.5644C35.8486 18.3886 35.3898 18.2981 34.9266 18.2983C33.991 18.2985 33.0938 18.6675 32.4324 19.3243C31.771 19.981 31.3996 20.8715 31.3998 21.8C31.4001 22.7285 31.772 23.6189 32.4337 24.2752C33.0954 24.9316 33.9928 25.3002 34.9283 25.3ZM39.1604 18.125H41.2747C41.4152 18.125 41.5499 18.0697 41.6494 17.9713C41.7489 17.8729 41.805 17.7394 41.8055 17.6V15.5018C41.8055 15.362 41.7496 15.2281 41.65 15.1293C41.5505 15.0305 41.4155 14.975 41.2747 14.975H39.1604C39.0196 14.975 38.8846 15.0305 38.7851 15.1293C38.6856 15.2281 38.6296 15.362 38.6296 15.5018V17.6C38.6314 17.8888 38.8695 18.125 39.1604 18.125ZM34.9283 5C30.4387 5 26.1329 6.76999 22.9582 9.92061C19.7835 13.0712 18 17.3444 18 21.8C18 26.2556 19.7835 30.5288 22.9582 33.6794C26.1329 36.83 30.4387 38.6 34.9283 38.6C37.1514 38.6 39.3527 38.1655 41.4065 37.3212C43.4604 36.4769 45.3265 35.2394 46.8985 33.6794C48.4704 32.1194 49.7174 30.2674 50.5681 28.2291C51.4188 26.1908 51.8567 24.0062 51.8567 21.8C51.8567 19.5938 51.4188 17.4092 50.5681 15.3709C49.7174 13.3326 48.4704 11.4806 46.8985 9.92061C45.3265 8.36058 43.4604 7.1231 41.4065 6.27882C39.3527 5.43454 37.1514 5 34.9283 5ZM43.7452 28.6058C43.7452 29.675 42.8635 30.55 41.7861 30.55H28.0706C26.9932 30.55 26.1115 29.675 26.1115 28.6058V14.9943C26.1115 13.925 26.9932 13.05 28.0706 13.05H41.7861C42.8635 13.05 43.7452 13.925 43.7452 14.9943V28.6058Z" fill="white"/>
<defs>
<filter id="filter0_d_1_177" x="0" y="0" width="69.5999" height="69.5999" filterUnits="userSpaceOnUse" color-interpolation-filters="sRGB">
<feFlood flood-opacity="0" result="BackgroundImageFix"/>
<feColorMatrix in="SourceAlpha" type="matrix" values="0 0 0 0 0 0 0 0 0 0 0 0 0 0 0 0 0 0 127 0" result="hardAlpha"/>
<feOffset dy="13"/>
<feGaussianBlur stdDeviation="9"/>
<feColorMatrix type="matrix" values="0 0 0 0 0.0658854 0 0 0 0 0.0730469 0 0 0 0 0.1375 0 0 0 0.08 0"/>
<feBlend mode="normal" in2="BackgroundImageFix" result="effect1_dropShadow_1_177"/>
<feBlend mode="normal" in="SourceGraphic" in2="effect1_dropShadow_1_177" result="shape"/>
</filter>
</defs>
</svg>
