<svg width="20" height="21" viewBox="0 0 20 21" fill="none" xmlns="http://www.w3.org/2000/svg">
<path d="M17.5 11.1583C17.3689 12.5768 16.8366 13.9287 15.9652 15.0557C15.0939 16.1826 13.9196 17.0382 12.5798 17.5221C11.2399 18.0061 9.78999 18.0984 8.39959 17.7884C7.00918 17.4784 5.73583 16.7788 4.72852 15.7715C3.72122 14.7642 3.02162 13.4908 2.71159 12.1004C2.40156 10.71 2.49393 9.26007 2.97789 7.92025C3.46184 6.58042 4.31736 5.40614 5.44435 4.53479C6.57133 3.66345 7.92317 3.13109 9.34167 3C8.51118 4.12356 8.11154 5.50787 8.21545 6.90118C8.31935 8.29448 8.91989 9.60422 9.90784 10.5922C10.8958 11.5801 12.2055 12.1807 13.5988 12.2846C14.9921 12.3885 16.3764 11.9888 17.5 11.1583Z" stroke="#757575" stroke-width="4" stroke-linecap="round" stroke-linejoin="round"/>
</svg>
