<svg width="70" height="70" viewBox="0 0 70 70" fill="none" xmlns="http://www.w3.org/2000/svg">
<g filter="url(#filter0_d_1_174)">
<circle cx="34.7999" cy="21.7999" r="16.7999" fill="#1A202C"/>
</g>
<path d="M35.3281 5C25.9787 5 18.3998 12.5215 18.3998 21.8C18.3998 31.0785 25.9787 38.6 35.3281 38.6C44.6775 38.6 52.2565 31.0785 52.2565 21.8C52.2565 12.5215 44.6775 5 35.3281 5ZM42.2141 18.762C42.2211 18.9055 42.2229 19.049 42.2229 19.189C42.2229 23.564 38.8707 28.6058 32.7377 28.6058C30.9255 28.6087 29.151 28.0922 27.6275 27.1183C27.8867 27.1498 28.153 27.162 28.4228 27.162C29.9851 27.162 31.4223 26.6353 32.5632 25.7463C31.8679 25.7327 31.1942 25.5042 30.636 25.0927C30.0778 24.6811 29.6629 24.107 29.449 23.4503C29.9484 23.5445 30.4627 23.5247 30.9532 23.3925C30.1986 23.2411 29.5199 22.8353 29.0324 22.2439C28.5448 21.6526 28.2784 20.9121 28.2782 20.148V20.1078C28.7278 20.3545 29.2427 20.505 29.7894 20.5225C29.0819 20.0551 28.5811 19.3372 28.3893 18.5155C28.1976 17.6938 28.3294 16.8304 28.7578 16.102C29.5953 17.124 30.6398 17.9601 31.8235 18.556C33.0073 19.152 34.304 19.4947 35.6297 19.5618C35.4611 18.8518 35.5337 18.1065 35.836 17.4416C36.1383 16.7768 36.6535 16.2297 37.3015 15.8855C37.9494 15.5412 38.6938 15.419 39.4189 15.5379C40.1441 15.6568 40.8093 16.0102 41.3112 16.543C42.0574 16.3965 42.773 16.1248 43.4273 15.7398C43.1786 16.5065 42.6579 17.1576 41.9619 17.572C42.6229 17.493 43.2683 17.3166 43.8769 17.0488C43.4299 17.7136 42.8668 18.2938 42.2141 18.762Z" fill="white"/>
<defs>
<filter id="filter0_d_1_174" x="0" y="0" width="69.5999" height="69.5999" filterUnits="userSpaceOnUse" color-interpolation-filters="sRGB">
<feFlood flood-opacity="0" result="BackgroundImageFix"/>
<feColorMatrix in="SourceAlpha" type="matrix" values="0 0 0 0 0 0 0 0 0 0 0 0 0 0 0 0 0 0 127 0" result="hardAlpha"/>
<feOffset dy="13"/>
<feGaussianBlur stdDeviation="9"/>
<feColorMatrix type="matrix" values="0 0 0 0 0.0658854 0 0 0 0 0.0730469 0 0 0 0 0.1375 0 0 0 0.08 0"/>
<feBlend mode="normal" in2="BackgroundImageFix" result="effect1_dropShadow_1_174"/>
<feBlend mode="normal" in="SourceGraphic" in2="effect1_dropShadow_1_174" result="shape"/>
</filter>
</defs>
</svg>
